<?xml version="1.0" encoding="utf-8"?>
<svg xmlns="http://www.w3.org/2000/svg" xmlns:xlink="http://www.w3.org/1999/xlink" width="340px" height="68px" viewBox="0 0 340 68" version="1.1">
    
    <title>Group 14</title>
    <desc>Created with Sketch.</desc>
    <g id="Page-1" stroke="none" stroke-width="1" fill="none" fill-rule="evenodd">
        <g id="Group-14">
            <polygon id="Fill-1" fill="#231F20" points="30.1766301 30.1781605 30.1766301 67.8968689 52.8089198 67.8968689 52.8089198 60.3529941 37.7205049 60.3529941 37.7205049 52.8091194 45.2643796 52.8091194 45.2643796 45.2652446 37.7205049 45.2652446 37.7205049 37.7213699 52.8089198 37.7213699 52.8089198 30.1781605"/>
            <path d="M60.3532603,30.1781605 L60.3532603,67.8968689 L79.2136125,67.8968689 L79.2136125,64.1249315 L82.9862153,64.1249315 L82.9855499,37.7213699 L79.2136125,37.7213699 L79.2136125,33.9500978 L75.4410098,33.9500978 L75.4410098,30.1781605 L60.3532603,30.1781605 Z M67.897135,60.3529941 L75.4410098,60.3529941 L75.4410098,37.7213699 L67.897135,37.7213699 L67.897135,60.3529941 Z" id="Fill-2" fill="#231F20"/>
            <path d="M165.970568,30.1781605 L165.970568,67.8968689 L184.83092,67.8968689 L184.83092,64.1249315 L188.603523,64.1249315 L188.603523,37.7213699 L184.83092,37.7213699 L184.83092,33.9500978 L181.058982,33.9500978 L181.058982,30.1781605 L165.970568,30.1781605 Z M173.515108,60.3529941 L181.058982,60.3529941 L181.058982,37.7213699 L173.515108,37.7213699 L173.515108,60.3529941 Z" id="Fill-3" fill="#EC1D24"/>
            <path d="M0,67.8976008 L7.54387476,67.8976008 L7.54387476,60.3530607 L15.0877495,60.3530607 L15.0877495,52.8091859 L22.632955,52.8091859 L22.632955,33.9488337 L18.8603523,33.9488337 L18.8603523,30.1768963 L0,30.1762309 L0,67.8976008 Z M7.54387476,45.2653112 L15.0877495,45.2653112 L15.0877495,37.720771 L7.54387476,37.720771 L7.54387476,45.2653112 Z M15.0877495,67.8969354 L22.6322896,67.8969354 L22.6322896,60.3530607 L15.0877495,60.3530607 L15.0877495,67.8969354 Z" id="Fill-4" fill="#231F20"/>
            <path d="M196.147198,67.8976008 L203.691072,67.8976008 L203.691072,60.3530607 L211.235613,60.3530607 L211.235613,52.8091859 L218.780153,52.8091859 L218.780153,33.9488337 L215.00755,33.9488337 L215.00755,30.1768963 L196.147198,30.1762309 L196.147198,67.8976008 Z M203.691072,45.2653112 L211.235613,45.2653112 L211.235613,37.720771 L203.691072,37.720771 L203.691072,45.2653112 Z M211.235613,67.8969354 L218.779487,67.8969354 L218.779487,60.3530607 L211.235613,60.3530607 L211.235613,67.8969354 Z" id="Fill-5" fill="#231F20"/>
            <polygon id="Fill-6" fill="#EC1D24" points="90.5292916 30.1781605 90.5292916 67.8968689 98.0738317 67.8968689 98.0738317 37.7213699 105.617706 37.7213699 105.617706 67.8968689 113.162247 67.8968689 113.162247 37.7213699 120.706121 37.7213699 120.706121 67.8968689 128.249996 67.8968689 128.249996 37.7213699 124.478724 37.7213699 124.478724 33.9500978 120.706121 33.9500978 120.706121 30.1781605"/>
            <path d="M230.095233,33.9495656 L226.323295,33.9495656 L226.323295,64.1257299 L230.095898,64.1257299 L230.095898,67.8983327 L245.184313,67.8983327 L245.184313,64.1257299 L248.95625,64.1257299 L248.95625,33.9495656 L245.184313,33.9495656 L245.184313,30.1782935 L230.095233,30.1769628 L230.095233,33.9495656 Z M233.867836,60.3531272 L241.412376,60.3531272 L241.412376,37.7215029 L233.867836,37.7215029 L233.867836,60.3531272 Z" id="Fill-7" fill="#231F20"/>
            <path d="M290.449092,30.176364 L290.449092,33.9489667 L286.676489,33.9489667 L286.676489,64.1257965 L290.449092,64.1257965 L290.449092,67.8970685 L305.537507,67.8970685 L305.537507,64.1251311 L309.309444,64.1251311 L309.309444,33.9489667 L305.537507,33.9489667 L305.537507,30.176364 L290.449092,30.176364 Z M294.221695,60.3531937 L301.764904,60.3531937 L301.764904,37.7215695 L294.221695,37.7215695 L294.221695,60.3531937 Z" id="Fill-8" fill="#231F20"/>
            <polygon id="Fill-9" fill="#231F20" points="316.854317 30.1757652 316.854317 37.7203053 324.398857 37.7203053 324.398857 67.897135 331.943397 67.897135 331.943397 37.7203053 339.487272 37.7203053 339.487272 30.1757652"/>
            <path d="M150.882552,30.1781605 L150.882552,37.7213699 L143.338677,37.7213699 L143.338677,30.1781605 L135.794802,30.1781605 L135.794137,64.1249315 L139.566074,64.1249315 L139.566074,67.8968689 L154.654489,67.8981996 L154.654489,64.1255969 L158.427092,64.1255969 L158.426427,30.1781605 L150.882552,30.1781605 Z M143.338677,60.3523288 L150.882552,60.3523288 L150.882552,45.2652446 L143.338677,45.2652446 L143.338677,60.3523288 Z" id="Fill-10" fill="#EC1D24"/>
            <polygon id="Fill-11" fill="#EC1D24" points="226.324227 22.632955 233.868767 22.632955 233.868767 15.0890802 226.324227 15.0890802"/>
            <path d="M226.323562,3.77260274 L241.412642,3.77260274 L241.412642,0.000665362035 L226.323562,0.000665362035 L226.323562,3.77260274 Z M241.413307,3.77260274 L241.413307,7.54454012 L245.185245,7.54454012 L245.185245,22.632955 L248.957847,22.632955 L248.957847,7.54387476 L245.185245,7.54387476 L245.185245,3.77260274 L241.413307,3.77260274 Z M226.323562,11.3164775 L237.640705,11.3164775 L237.640705,7.54387476 L226.323562,7.54387476 L226.323562,11.3164775 Z M237.640705,22.632955 L241.412642,22.632955 L241.412642,11.3164775 L237.640705,11.3164775 L237.640705,22.632955 Z M222.55229,26.4055577 L226.323562,26.4055577 L226.323562,22.632955 L222.55229,22.632955 L222.55229,26.4055577 Z M218.779687,30.1768297 L222.55229,30.1768297 L222.55229,26.4055577 L218.779687,26.4055577 L218.779687,30.1768297 Z M215.00775,33.9487671 L218.779687,33.9487671 L218.779687,30.1768297 L215.00775,30.1768297 L215.00775,33.9487671 Z" id="Fill-12" fill="#231F20"/>
            <path d="M256.499859,30.1781605 L256.499859,67.8968689 L271.588939,67.8968689 L271.588939,67.8955382 L275.360211,67.8955382 L275.360211,64.1255969 L275.361542,64.1255969 L275.361542,64.1242661 L279.131483,64.1242661 L279.131483,60.3529941 L279.132814,60.3529941 L279.132814,52.8091194 L275.361542,52.8091194 L275.361542,45.2652446 L279.132814,45.2652446 L279.131483,33.9487671 L275.360211,33.9487671 L275.360211,30.1781605 L256.499859,30.1781605 Z M264.044399,45.2652446 L271.588939,45.2652446 L271.588939,37.7213699 L264.044399,37.7213699 L264.044399,45.2652446 Z M264.044399,60.3529941 L271.588939,60.3529941 L271.588939,52.8091194 L264.044399,52.8091194 L264.044399,60.3529941 Z" id="Fill-13" fill="#231F20"/>
        </g>
    </g>
</svg>
